<?xml version="1.0" encoding="utf-8" standalone="yes"?>
<!DOCTYPE svg PUBLIC "-//W3C//DTD SVG 1.1//EN" "http://www.w3.org/Graphics/SVG/1.1/DTD/svg11.dtd">
<svg width="530" height="518" viewBox="0 0 530 518" style="fill:none;stroke:none;fill-rule:evenodd;clip-rule:evenodd;stroke-linecap:round;stroke-linejoin:round;stroke-miterlimit:1.5;" version="1.1" xmlns="http://www.w3.org/2000/svg" xmlns:xlink="http://www.w3.org/1999/xlink"><style class="text-font-style fontImports" data-font-family="Roboto">@import url('https://fonts.googleapis.com/css2?family=Roboto:wght@400;700&amp;display=block');</style><rect id="" x="0" y="0" width="530" height="518" style="fill: #ffffff;"></rect><g id="items" style="isolation: isolate"><g id="blend" style="mix-blend-mode: normal"><g id="g-root-tf_qs5kxe1r15p8r-fill" data-item-order="-272448" transform="translate(-9, -9)"><g id="tf_qs5kxe1r15p8r-fill" stroke="none" fill="#ffffff"><g><path d="M 10 10L 538 10L 538 526L 10 526Z"></path></g></g></g><g id="g-root-4.cu_sy_146qgqa1r14aoa-fill" data-item-order="-45212" transform="translate(131.4781494140625, 227.735107421875)"><g id="4.cu_sy_146qgqa1r14aoa-fill" stroke="none" fill="url(#gradient-a28bff-80143514)"><g><path d="M 38.4874 132.598L 32.9573 136.889L 30.8114 134.124C 4.8341 100.6505 3.1768 54.4215 25.8346 19.3194L 22.0214 16.5317L 36.8089 10L 35.0717 26.0722L 31.4958 23.458C 10.6683 56.0414 12.2851 98.8342 36.3416 129.833L 38.4874 132.598Z"></path></g></g></g><g id="g-root-3.cu_sy_958w1e1r148ar-fill" data-item-order="-45208" transform="translate(167.76815795898438, 362.063720703125)"><g id="3.cu_sy_958w1e1r148ar-fill" stroke="none" fill="url(#gradient-76aaff-163240667)"><g><path d="M 132.598 10L 136.889 15.5301L 134.124 17.6759C 100.6505 43.6533 54.4215 45.3106 19.3194 22.6528L 16.5317 26.466L 10 11.6785L 26.0722 13.4156L 23.458 16.9915C 56.0414 37.8191 98.8342 36.2022 129.833 12.1458L 132.598 10Z"></path></g></g></g><g id="g-root-2.cu_sy_1hjfx9u1r14b9g-fill" data-item-order="-45204" transform="translate(301.9957275390625, 227.274169921875)"><g id="2.cu_sy_1hjfx9u1r14b9g-fill" stroke="none" fill="url(#gradient-4dd3ff-378786070)"><g><path d="M 26.4584 130.358L 11.6705 136.889L 13.4086 120.817L 16.9844 123.431C 37.8142 90.8492 36.1997 48.0563 12.1456 17.0564L 10 14.2912L 15.5304 10L 17.676 12.7652C 43.6508 46.2404 45.3056 92.4695 22.6454 127.57L 26.4584 130.358Z"></path></g></g></g><g id="g-root-1.cu_sy_hs592q1r15ngt-fill" data-item-order="-45200" transform="translate(167.30471801757812, 191.55010986328125)"><defs><linearGradient id="gradient-a28bff-80143514" x2="0" y2="1"><stop offset="0" stop-color="#bcabff"></stop><stop offset="1" stop-color="#886aff"></stop></linearGradient><linearGradient id="gradient-76aaff-163240667" x2="0" y2="1"><stop offset="0" stop-color="#9cc2ff"></stop><stop offset="1" stop-color="#4f92ff"></stop></linearGradient><linearGradient id="gradient-4dd3ff-378786070" x2="0" y2="1"><stop offset="0" stop-color="#7fdfff"></stop><stop offset="1" stop-color="#1ac6ff"></stop></linearGradient><linearGradient id="gradient-bceb57-497517668" x2="0" y2="1"><stop offset="0" stop-color="#cff976"></stop><stop offset="1" stop-color="#a8dd38"></stop></linearGradient></defs><g id="1.cu_sy_hs592q1r15ngt-fill" stroke="none" fill="url(#gradient-bceb57-497517668)"><g><path d="M 130.358 22.025015L 136.889 36.812915L 120.817 35.074815L 123.431 31.499115C 90.8492 10.669215 48.0563 12.283715 17.0564 36.337815L 14.2912 38.483415L 10 32.953015L 12.7652 30.807415C 46.2404 4.832615 92.4694 3.177815 127.57 25.838015L 130.358 22.025015Z"></path></g></g></g><g id="g-root-tx_thecycle_8zmm9e1r15pfu-fill" data-item-order="0" transform="translate(99, 39)"><g id="tx_thecycle_8zmm9e1r15pfu-fill" stroke="none" fill="#484848"><g><text style="font: bold 20px Roboto, sans-serif; white-space: pre;" font-weight="bold" font-size="20px" font-family="Roboto, sans-serif"><tspan x="14.13" y="34" dominant-baseline="ideographic">The Cycle of Wellness Tasks</tspan></text></g></g></g><g id="g-root-tx_setwelln_18hk65u1r15on5-fill" data-item-order="0" transform="translate(165, 123)"><g id="tx_setwelln_18hk65u1r15on5-fill" stroke="none" fill="#484848"><g><text style="font: 20px Roboto, sans-serif; white-space: pre;" font-size="20px" font-family="Roboto, sans-serif"><tspan x="16.48" y="34" dominant-baseline="ideographic">Set Wellness </tspan><tspan x="47.97" y="58" dominant-baseline="ideographic">Goals</tspan></text></g></g></g><g id="g-root-tx_reflecto_1q6yrea1r15n9q-fill" data-item-order="0" transform="translate(15, 267)"><g id="tx_reflecto_1q6yrea1r15n9q-fill" stroke="none" fill="#484848"><g><text style="font: 20px Roboto, sans-serif; white-space: pre;" font-size="20px" font-family="Roboto, sans-serif"><tspan x="14.67" y="34" dominant-baseline="ideographic">Reflect on </tspan><tspan x="52.91" y="58" dominant-baseline="ideographic">Goals</tspan></text></g></g></g><g id="g-root-tx_attemptt_1q87pki1r15pfs-fill" data-item-order="0" transform="translate(351, 279)"><g id="tx_attemptt_1q87pki1r15pfs-fill" stroke="none" fill="#484848"><g><text style="font: 20px Roboto, sans-serif; white-space: pre;" font-size="20px" font-family="Roboto, sans-serif"><tspan x="12" y="34" dominant-baseline="ideographic">Attempt Tasks</tspan></text></g></g></g><g id="g-root-tx_experien_v4upma1r15o1z-fill" data-item-order="0" transform="translate(177, 411)"><g id="tx_experien_v4upma1r15o1z-fill" stroke="none" fill="#484848"><g><text style="font: 20px Roboto, sans-serif; white-space: pre;" font-size="20px" font-family="Roboto, sans-serif"><tspan x="12.77" y="34" dominant-baseline="ideographic">Experience </tspan><tspan x="28.58" y="58" dominant-baseline="ideographic">Fatigue</tspan></text></g></g></g><g id="g-root-tf_qs5kxe1r15p8r-stroke" data-item-order="-272448" transform="translate(-9, -9)"></g><g id="g-root-4.cu_sy_146qgqa1r14aoa-stroke" data-item-order="-45212" transform="translate(131.4781494140625, 227.735107421875)"><g id="4.cu_sy_146qgqa1r14aoa-stroke" fill="none" stroke-linecap="round" stroke-linejoin="round" stroke-miterlimit="4" stroke="#484848" stroke-width="2"><g><path d="M 38.4874 132.5979L 32.9573 136.8895L 30.8114 134.1244C 4.8341 100.6505 3.1768 54.4215 25.8346 19.3194L 22.0214 16.5317L 36.8089 10L 35.0717 26.0722L 31.4958 23.458C 10.6683 56.0414 12.2851 98.8342 36.3416 129.8328L 38.4874 132.5979Z"></path></g></g></g><g id="g-root-3.cu_sy_958w1e1r148ar-stroke" data-item-order="-45208" transform="translate(167.76815795898438, 362.063720703125)"><g id="3.cu_sy_958w1e1r148ar-stroke" fill="none" stroke-linecap="round" stroke-linejoin="round" stroke-miterlimit="4" stroke="#484848" stroke-width="2"><g><path d="M 132.5979 10L 136.8895 15.5301L 134.1244 17.6759C 100.6505 43.6533 54.4215 45.3106 19.3194 22.6528L 16.5317 26.466L 10 11.6785L 26.0722 13.4156L 23.458 16.9915C 56.0414 37.8191 98.8342 36.2022 129.8328 12.1458L 132.5979 10Z"></path></g></g></g><g id="g-root-2.cu_sy_1hjfx9u1r14b9g-stroke" data-item-order="-45204" transform="translate(301.9957275390625, 227.274169921875)"><g id="2.cu_sy_1hjfx9u1r14b9g-stroke" fill="none" stroke-linecap="round" stroke-linejoin="round" stroke-miterlimit="4" stroke="#484848" stroke-width="2"><g><path d="M 26.4584 130.3583L 11.6705 136.8891L 13.4086 120.817L 16.9844 123.4314C 37.8142 90.8491 36.1997 48.0563 12.1456 17.0564L 10 14.2912L 15.5304 10L 17.676 12.7652C 43.6508 46.2404 45.3056 92.4694 22.6454 127.5704L 26.4584 130.3583Z"></path></g></g></g><g id="g-root-1.cu_sy_hs592q1r15ngt-stroke" data-item-order="-45200" transform="translate(167.30471801757812, 191.55010986328125)"><g id="1.cu_sy_hs592q1r15ngt-stroke" fill="none" stroke-linecap="round" stroke-linejoin="round" stroke-miterlimit="4" stroke="#484848" stroke-width="2"><g><path d="M 130.3583 22.025015L 136.8891 36.812915L 120.817 35.074815L 123.4314 31.499115C 90.8491 10.669215 48.0563 12.283715 17.0564 36.337815L 14.2912 38.483415L 10 32.953015L 12.7652 30.807415C 46.2404 4.832615 92.4694 3.177815 127.5704 25.838015L 130.3583 22.025015Z"></path></g></g></g><g id="g-root-tx_thecycle_8zmm9e1r15pfu-stroke" data-item-order="0" transform="translate(99, 39)"></g><g id="g-root-tx_setwelln_18hk65u1r15on5-stroke" data-item-order="0" transform="translate(165, 123)"></g><g id="g-root-tx_reflecto_1q6yrea1r15n9q-stroke" data-item-order="0" transform="translate(15, 267)"></g><g id="g-root-tx_attemptt_1q87pki1r15pfs-stroke" data-item-order="0" transform="translate(351, 279)"></g><g id="g-root-tx_experien_v4upma1r15o1z-stroke" data-item-order="0" transform="translate(177, 411)"></g></g></g></svg>